<svg xmlns="http://www.w3.org/2000/svg" width="117.462" height="117.948" viewBox="0 0 117.462 117.948">
  <g id="cta-icon" transform="translate(0)">
    <path id="Path_14323" data-name="Path 14323" d="M76.276,172.776V153.109a14.662,14.662,0,0,0-14.6-14.633H53.613v-6.606a8.9,8.9,0,0,0,1.149-1.123,24.133,24.133,0,0,0,6.893-16.926V91.071a12.1,12.1,0,0,0,4.48-4.962,20.327,20.327,0,0,0,2.223-9.392A1.692,1.692,0,0,0,66.4,75.032L50.6,77.517a19.617,19.617,0,0,1-8.215-.445l-7.236-1.954a8.078,8.078,0,0,0-7.072,1.395,8.3,8.3,0,0,0-1.73,1.772A23.687,23.687,0,0,0,14.378,98.834V113.82A24.161,24.161,0,0,0,21.3,130.746a12.95,12.95,0,0,1,1.119,1.07v6.66H14.483A14.561,14.561,0,0,0,0,153.109v19.668a1.681,1.681,0,0,0,1.613,1.766H74.546a1.779,1.779,0,0,0,1.731-1.766ZM30.138,79.223a4.715,4.715,0,0,1,2.87-.978,4.822,4.822,0,0,1,1.25.167L41.5,80.367a23.012,23.012,0,0,0,9.636.521l13.737-2.16c-.6,6.129-3.9,9.382-6.814,10.354-1.773.268-20.5,3.072-29.061,3.072a.725.725,0,0,1-.725-.711V82.977a4.71,4.71,0,0,1,1.87-3.755Zm-5.281,4.264v7.956a4.121,4.121,0,0,0,3.517,4.074A15.361,15.361,0,0,1,17.79,99.071v-.236a20.391,20.391,0,0,1,7.067-15.348ZM17.79,113.82V102.486c.244.016.634.027.935.027,6.483,0,11.505-3.655,14.838-7.121,9.192-.593,22.244-2.526,24.681-2.9V113.82a20.72,20.72,0,0,1-5.9,14.546,19.74,19.74,0,0,1-28.591,0A20.773,20.773,0,0,1,17.79,113.82Zm20.256,24.086A22.975,22.975,0,0,0,50.2,134.437v4.991a19.418,19.418,0,0,1-24.369.008V134.4a22.943,22.943,0,0,0,12.214,3.506Zm34.819,33.225H3.412V153.109a11.146,11.146,0,0,1,11.071-11.221h9.046a22.53,22.53,0,0,0,29.034,0h9.113a11.247,11.247,0,0,1,11.189,11.221Zm0,0" transform="translate(0 -56.594)"/>
    <path id="Path_14324" data-name="Path 14324" d="M102.578,222.376a6.157,6.157,0,0,0,6.15-6.15,1.706,1.706,0,1,0-3.412,0,2.738,2.738,0,1,1-5.476,0,1.706,1.706,0,1,0-3.412,0A6.157,6.157,0,0,0,102.578,222.376Zm0,0" transform="translate(-72.93 -162.243)"/>
    <path id="Path_14325" data-name="Path 14325" d="M171.767,222.376a6.157,6.157,0,0,0,6.149-6.15,1.706,1.706,0,1,0-3.412,0,2.738,2.738,0,1,1-5.476,0,1.706,1.706,0,1,0-3.412,0A6.157,6.157,0,0,0,171.767,222.376Zm0,0" transform="translate(-125.257 -162.243)"/>
    <path id="Path_14326" data-name="Path 14326" d="M335.932,0H292.671A1.729,1.729,0,0,0,291,1.766V33.929a1.631,1.631,0,0,0,1.672,1.651h6.37v7.69a1.724,1.724,0,0,0,1.725,1.706,1.754,1.754,0,0,0,1-.349l12.517-9.046h21.648a1.581,1.581,0,0,0,1.613-1.651V1.766A1.681,1.681,0,0,0,335.932,0Zm-1.8,32.168h-20.4a1.772,1.772,0,0,0-1.011.349l-10.27,7.42V33.929a1.732,1.732,0,0,0-1.68-1.761h-6.362V3.412h39.722Zm0,0" transform="translate(-220.084)"/>
    <path id="Path_14327" data-name="Path 14327" d="M323.448,39.412H339.9a1.706,1.706,0,0,0,0-3.412H323.448a1.706,1.706,0,1,0,0,3.412Zm0,0" transform="translate(-243.335 -27.227)"/>
    <path id="Path_14328" data-name="Path 14328" d="M323.448,69.412h28.641a1.706,1.706,0,1,0,0-3.412H323.448a1.706,1.706,0,1,0,0,3.412Zm0,0" transform="translate(-243.335 -49.916)"/>
    <path id="Path_14329" data-name="Path 14329" d="M323.448,99.412h28.641a1.706,1.706,0,1,0,0-3.412H323.448a1.706,1.706,0,1,0,0,3.412Zm0,0" transform="translate(-243.335 -72.605)"/>
  </g>
</svg>
