<svg xmlns="http://www.w3.org/2000/svg" width="97.427" height="97.427" viewBox="0 0 97.427 97.427">
  <g id="cta-icon" transform="translate(-0.001)">
    <g id="Group_471" data-name="Group 471" transform="translate(0.001 17.506)">
      <g id="Group_470" data-name="Group 470" transform="translate(0)">
        <path id="Path_363" data-name="Path 363" d="M91.719,129.106a8.573,8.573,0,0,0-8.563-8.563H70.439a69.421,69.421,0,0,0,3.124-13.153A13.4,13.4,0,0,0,60.322,92a2.854,2.854,0,0,0-2.854,2.854c0,6.9-3.963,17.3-8.587,19.624-5.205,2.609-15.446,5.5-17.486,6.065H2.855A2.854,2.854,0,0,0,0,123.4v39.96a2.854,2.854,0,0,0,2.854,2.854h8.563v2.854a2.854,2.854,0,0,0,2.854,2.854h11.8a8.574,8.574,0,0,0,7.825-5.092l20.026,5.006a2.86,2.86,0,0,0,.692.085H71.739A8.563,8.563,0,0,0,79.7,160.2a8.565,8.565,0,0,0,5.709-11.417,8.559,8.559,0,0,0,4.125-13.971A8.529,8.529,0,0,0,91.719,129.106Zm-80.3,31.4H5.709V126.252h5.709Zm17.506,2.854a2.858,2.858,0,0,1-2.854,2.854H17.126v-39.96h11.8ZM66.03,137.669H83.156a2.854,2.854,0,0,1,0,5.709H66.03a2.854,2.854,0,1,0,0,5.709H77.447a2.854,2.854,0,1,1,0,5.709H66.03a2.854,2.854,0,0,0,0,5.709h5.709a2.854,2.854,0,1,1,0,5.709H54.965l-20.332-5.083V125.562c3.851-1.106,12.019-3.582,16.805-5.981,6.555-3.286,10.569-13.681,11.519-21.406a7.7,7.7,0,0,1,4.959,8.373c-1.352,9.068-3.048,12.79-4.439,15.572a2.854,2.854,0,0,0,2.553,4.131H83.156a2.854,2.854,0,1,1,0,5.709H66.03a2.854,2.854,0,1,0,0,5.709Z" transform="translate(-0.001 -92)"/>
      </g>
    </g>
    <g id="Group_473" data-name="Group 473" transform="translate(60.322)">
      <g id="Group_472" data-name="Group 472">
        <path id="Path_364" data-name="Path 364" d="M319.854,0A2.854,2.854,0,0,0,317,2.854V8.943a2.854,2.854,0,0,0,5.709,0V2.854A2.854,2.854,0,0,0,319.854,0Z" transform="translate(-317)"/>
      </g>
    </g>
    <g id="Group_475" data-name="Group 475" transform="translate(38.12 9.577)">
      <g id="Group_474" data-name="Group 474">
        <path id="Path_365" data-name="Path 365" d="M209.237,55.2,205.2,51.164a2.854,2.854,0,0,0-4.037,4.037l4.037,4.037a2.854,2.854,0,0,0,4.037-4.037Z" transform="translate(-200.327 -50.328)"/>
      </g>
    </g>
    <g id="Group_477" data-name="Group 477" transform="translate(28.924 31.778)">
      <g id="Group_476" data-name="Group 476">
        <path id="Path_366" data-name="Path 366" d="M160.562,167h-5.709a2.854,2.854,0,1,0,0,5.709h5.709a2.854,2.854,0,0,0,0-5.709Z" transform="translate(-151.999 -167)"/>
      </g>
    </g>
    <g id="Group_479" data-name="Group 479" transform="translate(86.01 31.778)">
      <g id="Group_478" data-name="Group 478">
        <path id="Path_367" data-name="Path 367" d="M460.563,167h-5.709a2.854,2.854,0,0,0,0,5.709h5.709a2.854,2.854,0,1,0,0-5.709Z" transform="translate(-452 -167)"/>
      </g>
    </g>
    <g id="Group_481" data-name="Group 481" transform="translate(78.486 9.577)">
      <g id="Group_480" data-name="Group 480">
        <path id="Path_368" data-name="Path 368" d="M421.369,51.164a2.854,2.854,0,0,0-4.036,0L413.3,55.2a2.854,2.854,0,0,0,4.037,4.037l4.036-4.037A2.854,2.854,0,0,0,421.369,51.164Z" transform="translate(-412.459 -50.328)"/>
      </g>
    </g>
  </g>
</svg>
