<svg xmlns="http://www.w3.org/2000/svg" width="200" height="68" viewBox="0 0 200 68">
  <g id="Group_1" data-name="Group 1" transform="translate(-2403 824)">
    <circle id="Ellipse_1" data-name="Ellipse 1" cx="5.5" cy="5.5" r="5.5" transform="translate(2403 -824)" fill="#ffe224"/>
    <circle id="Ellipse_17" data-name="Ellipse 17" cx="5.5" cy="5.5" r="5.5" transform="translate(2403 -786)" fill="#ffe224"/>
    <circle id="Ellipse_9" data-name="Ellipse 9" cx="5.5" cy="5.5" r="5.5" transform="translate(2403 -805)" fill="#ffe224"/>
    <circle id="Ellipse_18" data-name="Ellipse 18" cx="5.5" cy="5.5" r="5.5" transform="translate(2403 -767)" fill="#ffe224"/>
    <circle id="Ellipse_5" data-name="Ellipse 5" cx="5.5" cy="5.5" r="5.5" transform="translate(2487 -824)" fill="#ffe224"/>
    <circle id="Ellipse_25" data-name="Ellipse 25" cx="5.5" cy="5.5" r="5.5" transform="translate(2487 -786)" fill="#ffe224"/>
    <circle id="Ellipse_13" data-name="Ellipse 13" cx="5.5" cy="5.5" r="5.5" transform="translate(2487 -805)" fill="#ffe224"/>
    <circle id="Ellipse_26" data-name="Ellipse 26" cx="5.5" cy="5.5" r="5.5" transform="translate(2487 -767)" fill="#ffe224"/>
    <circle id="Ellipse_3" data-name="Ellipse 3" cx="5.5" cy="5.5" r="5.5" transform="translate(2445 -824)" fill="#ffe224"/>
    <circle id="Ellipse_19" data-name="Ellipse 19" cx="5.5" cy="5.5" r="5.5" transform="translate(2445 -786)" fill="#ffe224"/>
    <circle id="Ellipse_10" data-name="Ellipse 10" cx="5.5" cy="5.5" r="5.5" transform="translate(2445 -805)" fill="#ffe224"/>
    <circle id="Ellipse_20" data-name="Ellipse 20" cx="5.5" cy="5.5" r="5.5" transform="translate(2445 -767)" fill="#ffe224"/>
    <circle id="Ellipse_7" data-name="Ellipse 7" cx="5.5" cy="5.5" r="5.5" transform="translate(2529 -824)" fill="#ffe224"/>
    <circle id="Ellipse_35" data-name="Ellipse 35" cx="5.5" cy="5.5" r="5.5" transform="translate(2571 -824)" fill="#ffe224"/>
    <circle id="Ellipse_27" data-name="Ellipse 27" cx="5.5" cy="5.5" r="5.5" transform="translate(2529 -786)" fill="#ffe224"/>
    <circle id="Ellipse_37" data-name="Ellipse 37" cx="5.5" cy="5.5" r="5.5" transform="translate(2571 -786)" fill="#ffe224"/>
    <circle id="Ellipse_14" data-name="Ellipse 14" cx="5.5" cy="5.5" r="5.5" transform="translate(2529 -805)" fill="#ffe224"/>
    <circle id="Ellipse_36" data-name="Ellipse 36" cx="5.5" cy="5.5" r="5.5" transform="translate(2571 -805)" fill="#ffe224"/>
    <circle id="Ellipse_28" data-name="Ellipse 28" cx="5.5" cy="5.5" r="5.5" transform="translate(2529 -767)" fill="#ffe224"/>
    <circle id="Ellipse_39" data-name="Ellipse 39" cx="5.5" cy="5.5" r="5.5" transform="translate(2571 -767)" fill="#ffe224"/>
    <circle id="Ellipse_2" data-name="Ellipse 2" cx="5.5" cy="5.5" r="5.5" transform="translate(2424 -824)" fill="#ffe224"/>
    <circle id="Ellipse_21" data-name="Ellipse 21" cx="5.5" cy="5.5" r="5.5" transform="translate(2424 -786)" fill="#ffe224"/>
    <circle id="Ellipse_11" data-name="Ellipse 11" cx="5.5" cy="5.5" r="5.5" transform="translate(2424 -805)" fill="#ffe224"/>
    <circle id="Ellipse_22" data-name="Ellipse 22" cx="5.5" cy="5.5" r="5.5" transform="translate(2424 -767)" fill="#ffe224"/>
    <circle id="Ellipse_6" data-name="Ellipse 6" cx="5.5" cy="5.5" r="5.5" transform="translate(2508 -824)" fill="#ffe224"/>
    <circle id="Ellipse_29" data-name="Ellipse 29" cx="5.5" cy="5.5" r="5.5" transform="translate(2508 -786)" fill="#ffe224"/>
    <circle id="Ellipse_15" data-name="Ellipse 15" cx="5.5" cy="5.5" r="5.5" transform="translate(2508 -805)" fill="#ffe224"/>
    <circle id="Ellipse_30" data-name="Ellipse 30" cx="5.5" cy="5.5" r="5.5" transform="translate(2508 -767)" fill="#ffe224"/>
    <circle id="Ellipse_4" data-name="Ellipse 4" cx="5.5" cy="5.5" r="5.5" transform="translate(2466 -824)" fill="#ffe224"/>
    <circle id="Ellipse_23" data-name="Ellipse 23" cx="5.5" cy="5.5" r="5.5" transform="translate(2466 -786)" fill="#ffe224"/>
    <circle id="Ellipse_12" data-name="Ellipse 12" cx="5.5" cy="5.5" r="5.5" transform="translate(2466 -805)" fill="#ffe224"/>
    <circle id="Ellipse_24" data-name="Ellipse 24" cx="5.5" cy="5.5" r="5.5" transform="translate(2466 -767)" fill="#ffe224"/>
    <circle id="Ellipse_8" data-name="Ellipse 8" cx="5.5" cy="5.5" r="5.5" transform="translate(2550 -824)" fill="#ffe224"/>
    <circle id="Ellipse_33" data-name="Ellipse 33" cx="5.5" cy="5.5" r="5.5" transform="translate(2592 -824)" fill="#ffe224"/>
    <circle id="Ellipse_31" data-name="Ellipse 31" cx="5.5" cy="5.5" r="5.5" transform="translate(2550 -786)" fill="#ffe224"/>
    <circle id="Ellipse_38" data-name="Ellipse 38" cx="5.5" cy="5.5" r="5.5" transform="translate(2592 -786)" fill="#ffe224"/>
    <circle id="Ellipse_16" data-name="Ellipse 16" cx="5.5" cy="5.5" r="5.5" transform="translate(2550 -805)" fill="#ffe224"/>
    <circle id="Ellipse_34" data-name="Ellipse 34" cx="5.5" cy="5.5" r="5.5" transform="translate(2592 -805)" fill="#ffe224"/>
    <circle id="Ellipse_32" data-name="Ellipse 32" cx="5.5" cy="5.5" r="5.5" transform="translate(2550 -767)" fill="#ffe224"/>
    <circle id="Ellipse_40" data-name="Ellipse 40" cx="5.5" cy="5.5" r="5.5" transform="translate(2592 -767)" fill="#ffe224"/>
  </g>
</svg>
