<svg xmlns="http://www.w3.org/2000/svg" xmlns:xlink="http://www.w3.org/1999/xlink" width="85" height="79" viewBox="0 0 85 79">
  <defs>
    <clipPath id="clip-path">
      <rect id="Rectangle_1069" data-name="Rectangle 1069" width="85" height="79" transform="translate(827 1463)"/>
    </clipPath>
  </defs>
  <g id="hero-icon-2" transform="translate(-827 -1463)" clip-path="url(#clip-path)">
    <g id="muscle" transform="translate(836 1466)">
      <path id="Path_45" data-name="Path 45" d="M66.77,75.778a32.691,32.691,0,0,1-17.933-3.35,1.162,1.162,0,0,0-.884-.112c-.126.034-12.651,3.391-22.739,1.152-6.289-1.4-12.221-5.828-16.552-9.063-.582-.435-1.133-.846-1.65-1.225A13.226,13.226,0,0,0,4.19,61.854c-.445-.17-1.055-.4-1.185-.485A.456.456,0,0,1,2.829,61V58.3c.056-2.137,9.014-35.013,10.4-39.2a.9.9,0,0,1,.266-.193l17.728-8.1,5.731,7.461A1.028,1.028,0,0,1,36.9,19.56l-5.663,6.349a1.009,1.009,0,0,1-1.382.138l-2.29-2.111a1.172,1.172,0,0,0-1.008-.264,1.221,1.221,0,0,0-.845.645c-.192.377-1.925.839-3.695.852l-.577-.058A1.165,1.165,0,0,0,20.4,26.983c.492.636.875,1.147,1.092,1.439l1.134,19.268c-.7,2.737-1.347,3.514-1.506,3.67a1.165,1.165,0,0,0,.35,2.276c1.321,0,2.444-1.736,3.345-5.125A14.254,14.254,0,0,1,42.8,48.66c2.942,2.953,3.125,4.916,3.131,5a1.165,1.165,0,0,0,2.33-.026c0-.268-.1-2.566-3.112-5.887,2.843-3.5,6.081-5.51,9.646-5.948,6.146-.757,11.317,3.377,11.368,3.418a1.165,1.165,0,0,0,1.474-1.8c-.24-.2-5.96-4.8-13.1-3.929-4.174.506-7.922,2.764-11.152,6.715-2.621-1.783-10.138-5.818-18.545-.541l-1.043-17.72a1.153,1.153,0,0,0-.169-.54,7.655,7.655,0,0,0,3.184-.988l1.5,1.383a3.338,3.338,0,0,0,4.659-.335l5.664-6.349a3.377,3.377,0,0,0,.189-4.231L32.51,8.661a1.166,1.166,0,0,0-1.408-.35L12.545,16.787a2.834,2.834,0,0,0-1.5,1.535C10.383,20.3.5,55.551.5,58.3V61a2.778,2.778,0,0,0,1.068,2.2,7.364,7.364,0,0,0,1.79.828,12.686,12.686,0,0,1,2.278,1.031c.512.374,1.057.781,1.632,1.211,4.5,3.361,10.664,7.964,17.442,9.47,9.648,2.144,20.975-.448,23.4-1.06a34.922,34.922,0,0,0,15.356,3.606,32.189,32.189,0,0,0,3.56-.2,1.165,1.165,0,1,0-.258-2.315Zm0,0" transform="translate(-0.499 -7.064)"/>
      <path id="Path_46" data-name="Path 46" d="M421.519,386.068a1.165,1.165,0,0,0-2.323.128c0,.778.574,3.413,7.962,4.644a1.252,1.252,0,0,0,.193.016,1.165,1.165,0,0,0,.19-2.314C422.375,387.68,421.588,386.222,421.519,386.068Zm0,0" transform="translate(-360.951 -331.469)"/>
      <path id="Path_47" data-name="Path 47" d="M336.229,14.149h3.549v3.3a1.165,1.165,0,0,0,1.165,1.165h9.319a1.165,1.165,0,0,0,1.165-1.165v-3.3h3.5a1.165,1.165,0,0,0,.915-1.887L346.49.419a1.205,1.205,0,0,0-1.829,0l-9.346,11.843a1.165,1.165,0,0,0,.914,1.887Zm9.346-11.127,6.944,8.8h-2.257a1.165,1.165,0,0,0-1.165,1.165v3.3h-6.989v-3.3a1.165,1.165,0,0,0-1.165-1.165h-2.311Zm0,0" transform="translate(-288.523 0.001)"/>
      <path id="Path_48" data-name="Path 48" d="M380.6,143.356a1.165,1.165,0,0,0-1.165-1.165h-9.319a1.165,1.165,0,0,0-1.165,1.165v3.5a1.165,1.165,0,0,0,1.165,1.165h9.319a1.165,1.165,0,0,0,1.165-1.165Zm-2.33,2.33h-6.989v-1.165h6.989Zm0,0" transform="translate(-317.694 -122.411)"/>
      <path id="Path_49" data-name="Path 49" d="M379.436,192.434h-9.319a1.165,1.165,0,1,0,0,2.33h9.319a1.165,1.165,0,1,0,0-2.33Zm0,0" transform="translate(-317.697 -165.664)"/>
      <path id="Path_50" data-name="Path 50" d="M125.2,384.841c-15.258,3.268-21.786-7.172-22.057-7.617a1.165,1.165,0,0,0-2,1.2,19.981,19.981,0,0,0,5.895,5.763,22.59,22.59,0,0,0,12.529,3.6,29.176,29.176,0,0,0,6.118-.673,1.165,1.165,0,0,0-.488-2.278Zm0,0" transform="translate(-87.006 -324.263)"/>
    </g>
  </g>
</svg>
