<svg xmlns="http://www.w3.org/2000/svg" xmlns:xlink="http://www.w3.org/1999/xlink" width="85" height="79" viewBox="0 0 85 79">
  <defs>
    <clipPath id="clip-path">
      <rect id="Rectangle_1070" data-name="Rectangle 1070" width="85" height="79" transform="translate(672 1661)"/>
    </clipPath>
  </defs>
  <g id="hero-icon-3" transform="translate(-672 -1661)" clip-path="url(#clip-path)">
    <g id="male" transform="translate(678 1665)">
      <path id="Path_51" data-name="Path 51" d="M.735,17.431a1.171,1.171,0,0,0,1.518-.651c1.671-4.178,9.9-5.1,12.928-5.1a1.167,1.167,0,0,0,.825-.342A14.459,14.459,0,0,1,27.831,6.989a1.167,1.167,0,0,0,1.36-1.152v-3.5H43.2v3.5a1.169,1.169,0,0,0,1.342,1.154,15.732,15.732,0,0,1,12.427,4.342,1.168,1.168,0,0,0,.825.342c2.866,0,10.673.928,12.344,5.1a1.168,1.168,0,1,0,2.169-.868C69.98,10.091,60.565,9.426,58.282,9.351A17.831,17.831,0,0,0,45.538,4.578V1.168A1.168,1.168,0,0,0,44.37,0H28.024a1.168,1.168,0,0,0-1.168,1.168V4.576A17.031,17.031,0,0,0,14.7,9.35c-2.351.071-12.275.722-14.611,6.563A1.168,1.168,0,0,0,.735,17.43Zm0,0" transform="translate(-0.001 0)"/>
      <path id="Path_52" data-name="Path 52" d="M71.549,292.616a29.944,29.944,0,0,1-7.263-3.351,1.163,1.163,0,0,0-.966-.143,1.149,1.149,0,0,0-1.31.592c-.627,1.254-4,2.44-6.191,2.88a1.169,1.169,0,0,0-.878,1.514c.768,2.3-2.065,5.818-3.222,6.979a1.168,1.168,0,0,0,1.653,1.65c.477-.476,4.246-4.373,4.024-8.111a18.11,18.11,0,0,0,4.492-1.755c-.772,3.317-2.281,8.82-4.5,12.526a1.172,1.172,0,0,0-.146.383l-2.155,11.31H37.368v-4.67a1.168,1.168,0,0,0-2.336,0v4.67H17.363l-1.608-11.257a1.152,1.152,0,0,0-.155-.436c-2.143-3.572-3.624-8.814-4.418-12.16A19.671,19.671,0,0,0,15,294.628c-.221,3.737,3.548,7.635,4.025,8.111a1.167,1.167,0,0,0,1.651-1.651c-1.079-1.079-3.987-4.678-3.221-6.978a1.168,1.168,0,0,0-.879-1.514c-2.192-.439-5.561-1.622-6.19-2.88-.007-.013-.019-.021-.027-.034a1.176,1.176,0,0,0-.226-.29c-.019-.018-.035-.038-.056-.055a1.16,1.16,0,0,0-.277-.172c-.018-.008-.038-.009-.056-.017s-.061-.018-.093-.026a1.172,1.172,0,0,0-.332-.043c-.023,0-.045,0-.068,0a1.169,1.169,0,0,0-.385.1c-.015.007-.032.005-.046.012s-.023.022-.038.029-.06.025-.088.044a29.351,29.351,0,0,1-7.81,3.341,1.168,1.168,0,0,0,.568,2.266A33.168,33.168,0,0,0,8.523,292.1c.654,3.076,2.287,9.737,4.953,14.3l1.719,12.03a1.167,1.167,0,0,0,1.155,1h39.7a1.168,1.168,0,0,0,1.147-.949l2.3-12.059c2.67-4.555,4.306-11.222,4.964-14.309a32.772,32.772,0,0,0,6.45,2.753,1.168,1.168,0,0,0,.642-2.246Zm0,0" transform="translate(-0.003 -248.203)"/>
      <path id="Path_53" data-name="Path 53" d="M173.333,156.91a1.169,1.169,0,0,0-1.168,1.164c0,.3-.1,7.368-6.207,9.4a1.168,1.168,0,1,0,.739,2.216c7.714-2.572,7.8-11.526,7.8-11.616a1.167,1.167,0,0,0-1.165-1.166Zm0,0" transform="translate(-141.807 -134.724)"/>
      <path id="Path_54" data-name="Path 54" d="M281.941,156.9a1.168,1.168,0,0,0-1.168,1.168c0,.091.089,9.045,7.8,11.616a1.156,1.156,0,0,0,.37.061,1.168,1.168,0,0,0,.369-2.276c-6.1-2.035-6.206-9.1-6.207-9.4a1.167,1.167,0,0,0-1.168-1.165Zm0,0" transform="translate(-241.075 -134.717)"/>
      <path id="Path_55" data-name="Path 55" d="M247.742,257.164V273.51a1.168,1.168,0,0,0,2.336,0V257.164a1.168,1.168,0,0,0-2.336,0Zm0,0" transform="translate(-212.714 -219.801)"/>
    </g>
  </g>
</svg>
