<svg xmlns="http://www.w3.org/2000/svg" xmlns:xlink="http://www.w3.org/1999/xlink" width="85" height="79" viewBox="0 0 85 79">
  <defs>
    <clipPath id="clip-path">
      <rect id="Rectangle_1068" data-name="Rectangle 1068" width="85" height="79" transform="translate(714 1332)"/>
    </clipPath>
    <clipPath id="clip-path-2">
      <rect id="Rectangle_1067" data-name="Rectangle 1067" width="85" height="79" transform="translate(-0.267 0.021)"/>
    </clipPath>
  </defs>
  <g id="hero-icon-1" transform="translate(-714 -1332)" clip-path="url(#clip-path)">
    <g id="Gruppe_maskieren_1" data-name="Gruppe maskieren 1" transform="translate(714.267 1331.979)" clip-path="url(#clip-path-2)">
      <g id="dumbbell3" transform="translate(2.8 8.408)">
        <path id="Path_14396" data-name="Path 14396" d="M41.326,37.463a1.159,1.159,0,0,1-1.109-.822L36.7,25.073H26.147a1.159,1.159,0,1,1,0-2.319H37.554a1.159,1.159,0,0,1,1.109.822l2.662,8.747,3.889-12.774a1.159,1.159,0,0,1,2.218,0l1.683,5.528h10.2a1.159,1.159,0,0,1,0,2.319H48.257a1.159,1.159,0,0,1-1.109-.821l-.824-2.708L42.435,36.641a1.158,1.158,0,0,1-1.109.822Zm0,0" transform="translate(-7.474 -5.678)"/>
        <path id="Path_14397" data-name="Path 14397" d="M76.757,9.868a1.159,1.159,0,1,0-2.019,1.138,16.685,16.685,0,0,1,2.146,8.149c.015,7.6-4.351,16.049-12.975,25.121A116.76,116.76,0,0,1,45.949,59.383a1.489,1.489,0,0,1-1.686,0,119.791,119.791,0,0,1-15.7-12.814H39.379v4.7a2.708,2.708,0,0,0,2.7,2.7h2.525a2.708,2.708,0,0,0,2.705-2.7v-.1a2.714,2.714,0,0,0,.386.031h2.525a2.708,2.708,0,0,0,2.7-2.7V35.266a2.708,2.708,0,0,0-2.7-2.7H47.7a2.628,2.628,0,0,0-.386.031v-.1a2.708,2.708,0,0,0-2.705-2.7H42.084a2.708,2.708,0,0,0-2.7,2.7v4.583H35.725a1.159,1.159,0,1,0,0,2.319h3.655v4.856H13.552V39.4H30.481a1.159,1.159,0,1,0,0-2.319H20.269c-4.616-6.385-6.952-12.413-6.941-17.922A16.781,16.781,0,0,1,30.09,2.429h.024A16.69,16.69,0,0,1,43.168,8.712a2.485,2.485,0,0,0,3.876,0A16.692,16.692,0,0,1,60.1,2.429h.024a16.681,16.681,0,0,1,11.5,4.6,1.159,1.159,0,1,0,1.593-1.684A18.986,18.986,0,0,0,60.121.11h-.027A19,19,0,0,0,45.235,7.261a.167.167,0,0,1-.259,0A19,19,0,0,0,30.118.11H30.09A19.1,19.1,0,0,0,11.009,19.152C11,24.757,13.16,30.779,17.437,37.077H13.552V32.493a2.708,2.708,0,0,0-2.7-2.7H8.321a2.708,2.708,0,0,0-2.7,2.7v.1a2.714,2.714,0,0,0-.386-.031H2.7a2.708,2.708,0,0,0-2.7,2.7V48.495a2.708,2.708,0,0,0,2.7,2.7H5.231a2.713,2.713,0,0,0,.386-.031v.1a2.708,2.708,0,0,0,2.7,2.7h2.526a2.708,2.708,0,0,0,2.7-2.7v-4.7h11.74A120.272,120.272,0,0,0,42.959,61.3a3.8,3.8,0,0,0,4.293,0A119.168,119.168,0,0,0,65.589,45.873C74.638,36.355,79.218,27.364,79.2,19.151a19.013,19.013,0,0,0-2.445-9.283ZM47.7,34.88h2.526a.387.387,0,0,1,.386.386V48.495a.387.387,0,0,1-.386.387H47.7a.387.387,0,0,1-.386-.387V35.266A.387.387,0,0,1,47.7,34.88Zm-6-2.386a.386.386,0,0,1,.386-.386h2.525a.387.387,0,0,1,.387.386V51.267a.387.387,0,0,1-.387.386H42.084a.386.386,0,0,1-.386-.386ZM11.233,51.267a.387.387,0,0,1-.386.387H8.321a.387.387,0,0,1-.386-.387V42.1a1.159,1.159,0,0,0-2.319,0v6.394a.387.387,0,0,1-.387.387H2.7a.387.387,0,0,1-.386-.387V35.266a.387.387,0,0,1,.386-.386H5.23a.387.387,0,0,1,.386.386V36.69a1.159,1.159,0,0,0,2.319,0v-4.2a.387.387,0,0,1,.387-.386h2.525a.387.387,0,0,1,.386.386Zm0,0" transform="translate(0 -0.11)"/>
      </g>
    </g>
  </g>
</svg>
