<svg xmlns="http://www.w3.org/2000/svg" width="39" height="58" viewBox="0 0 39 58">
  <g id="stars" transform="translate(-585.5 -79.944)">
    <path id="Polygon_5" data-name="Polygon 5" d="M11.531,3.8a1,1,0,0,1,1.938,0l2.691,10.55a1,1,0,0,0,.385.564l7.328,5.276a1,1,0,0,1,0,1.623l-7.328,5.276a1,1,0,0,0-.385.564L13.469,38.2a1,1,0,0,1-1.938,0L8.84,27.652a1,1,0,0,0-.385-.564L1.127,21.812a1,1,0,0,1,0-1.623l7.328-5.276a1,1,0,0,0,.385-.564Z" transform="translate(585.5 79.944)" fill="#ffe224"/>
    <path id="Polygon_6" data-name="Polygon 6" d="M6.03,3.881a1,1,0,0,1,1.94,0L9.013,8.05a1,1,0,0,0,.378.563L12.9,11.194a1,1,0,0,1,0,1.612L9.391,15.386a1,1,0,0,0-.378.563L7.97,20.119a1,1,0,0,1-1.94,0L4.987,15.95a1,1,0,0,0-.378-.563L1.1,12.806a1,1,0,0,1,0-1.612L4.609,8.614a1,1,0,0,0,.378-.563Z" transform="translate(610.5 113.944)" fill="#ffe224"/>
  </g>
</svg>
