<svg xmlns="http://www.w3.org/2000/svg" width="111.002" height="111.002" viewBox="0 0 111.002 111.002">
  <g id="cta-icon" transform="translate(0)">
    <path id="Path_14336" data-name="Path 14336" d="M204.532,28.887,217.713,17.9h17.256V0H192V17.9h12.532Zm-8.952-14.564V3.581h35.807V14.323H216.417l-8.3,6.92v-6.92Zm0,0" transform="translate(-149.032)"/>
    <path id="Path_14337" data-name="Path 14337" d="M224,32h3.581v3.581H224Zm0,0" transform="translate(-173.87 -24.839)"/>
    <path id="Path_14338" data-name="Path 14338" d="M256,32h14.323v3.581H256Zm0,0" transform="translate(-198.709 -24.839)"/>
    <path id="Path_14339" data-name="Path 14339" d="M336,32h3.581v3.581H336Zm0,0" transform="translate(-260.806 -24.839)"/>
    <path id="Path_14340" data-name="Path 14340" d="M91.137,200.566l-1.448-14.493a12.54,12.54,0,0,0,10.57-12.362V150.436H93.1v-2.474a6.441,6.441,0,0,0-3.488-5.74,10.7,10.7,0,0,0,3.488-7.9v-3.581a10.742,10.742,0,1,0-21.484,0v3.581a10.75,10.75,0,0,0,7.077,10.085l-9.609,9.609H59.042a7.18,7.18,0,0,0-5.154-6.417l-7.339-2.095v-3.2a10.705,10.705,0,0,0,3.581-7.985v-3.581a10.742,10.742,0,0,0-21.484,0v3.581a10.711,10.711,0,0,0,3.581,7.985v3.2L24.887,147.6a7.189,7.189,0,0,0-5.194,6.886v6.69H12.532V171.92h3.581v28.646H0v3.581H111v-3.581ZM75.194,171.92v-8.21l12.686-12.686a5.608,5.608,0,0,0,1.585-3.434,2.913,2.913,0,0,1,.052.372V170.13a5.378,5.378,0,0,1-5.371,5.371H69.823V171.92Zm-5.371,14.323h9.122l1.432,14.323H69.823Zm12.72,0h3.563l1.432,14.323H83.976ZM93.1,170.13V154.017h3.581V173.71a8.962,8.962,0,0,1-8.952,8.952h-17.9v-3.581H84.146A8.962,8.962,0,0,0,93.1,170.13Zm-17.9-35.807v-3.581a7.161,7.161,0,0,1,14.323,0v3.581a7.161,7.161,0,1,1-14.323,0ZM70.565,157.6,82.51,145.652a2.008,2.008,0,0,1,2.839,2.839L72.663,161.178H53.71a1.79,1.79,0,1,1,0-3.581ZM32.226,130.742a7.161,7.161,0,0,1,14.323,0v3.581a7.161,7.161,0,0,1-14.323,0Zm7.161,14.323a10.69,10.69,0,0,0,3.581-.627v1.923a4.578,4.578,0,0,1-3.581,2.284,4.578,4.578,0,0,1-3.581-2.284v-1.923A10.69,10.69,0,0,0,39.387,145.065Zm-16.113,9.423a3.6,3.6,0,0,1,2.6-3.443l7.376-2.107a7.8,7.8,0,0,0,6.141,3.289,7.794,7.794,0,0,0,6.141-3.29l7.376,2.107a3.568,3.568,0,0,1,2.519,2.972H53.71a5.378,5.378,0,0,0-5.371,5.371,5.3,5.3,0,0,0,.33,1.79H23.274Zm-7.161,10.271h55.5v3.581h-55.5Zm3.581,14.323h5.371V175.5H19.693V171.92H66.243V175.5h-37.6v3.581h37.6v21.484H61.978L58.4,193.4H27.538l-3.581,7.161H19.693Zm38.281,21.484H27.962l1.79-3.581H56.184Zm0,0" transform="translate(0 -93.145)"/>
  </g>
</svg>
