<svg xmlns="http://www.w3.org/2000/svg" xmlns:xlink="http://www.w3.org/1999/xlink" width="34.115" height="34.15" viewBox="0 0 34.115 34.15">
  <defs>
    <clipPath id="clip-path">
      <rect id="Rectangle_1066" data-name="Rectangle 1066" width="34.115" height="34.15" transform="translate(12451.007 13138)"/>
    </clipPath>
  </defs>
  <g id="footer-icon-2" transform="translate(-12451.007 -13138)" clip-path="url(#clip-path)">
    <g id="footer-icon-2-2" data-name="footer-icon-2" transform="translate(12451.007 13138)">
      <path id="Path_16" data-name="Path 16" d="M11836.941,279.99a.667.667,0,1,0,.942,0A.666.666,0,0,0,11836.941,279.99Z" transform="translate(-11821.436 -253.956)"/>
      <path id="Path_17" data-name="Path 17" d="M11852.909,276.914l-5.066-4.306a.458.458,0,0,0-.072-.054,3.312,3.312,0,0,0-4.147.455l-2.763,2.76a.665.665,0,0,1-.728.145,18.1,18.1,0,0,1-7.61-5.771,13.341,13.341,0,0,1-2.076-3.691.766.766,0,0,0-.04-.138.665.665,0,0,1,.144-.726l2.762-2.762a3.314,3.314,0,0,0,.454-4.148l-.02-.032-3.657-5.082a3.336,3.336,0,0,0-5.162-.55l-.554.552v0l-1.975,1.973c-2.354,2.354-2.738,5.892-1.113,10.231a37.895,37.895,0,0,0,19.61,19.446c3.791,1.384,7.824,1.556,10.678-1.3l1.863-1.862A3.338,3.338,0,0,0,11852.909,276.914Zm-5.892-3.258,5.062,4.3a.633.633,0,0,0,.07.054,2,2,0,0,1,.341,3.1l-.136.139-8.631-6.461.842-.842A1.988,1.988,0,0,1,11847.018,273.656Zm-18.044-19.357.021.031,3.656,5.081a1.988,1.988,0,0,1-.283,2.473l-.814.816-5.84-8.586.157-.156A2,2,0,0,1,11828.974,254.3Zm12.381,29.668a36.576,36.576,0,0,1-18.818-18.662c-1-2.659-1.667-6.347.808-8.818l1.411-1.412,5.838,8.586-.985.985a2,2,0,0,0-.457,2.124,14.8,14.8,0,0,0,2.157,3.979,19.559,19.559,0,0,0,8.315,6.4,2,2,0,0,0,2.181-.434l.967-.967,8.629,6.461-.771.77C11847.979,285.627,11844.122,284.978,11841.354,283.967Z" transform="translate(-11820.297 -252.038)"/>
      <path id="Path_18" data-name="Path 18" d="M11835.018,277.729c-.7-.618-1.924-1.68-2.564-2.341a43.884,43.884,0,0,1-4.207-4.993.667.667,0,1,0-1.1.76,45.369,45.369,0,0,0,4.346,5.164c.678.7,1.908,1.77,2.643,2.414a.667.667,0,1,0,.879-1Z" transform="translate(-11820.763 -253.287)"/>
    </g>
  </g>
</svg>
