<svg xmlns="http://www.w3.org/2000/svg" xmlns:xlink="http://www.w3.org/1999/xlink" width="34.115" height="34.15" viewBox="0 0 34.115 34.15">
  <defs>
    <clipPath id="clip-path">
      <rect id="Rectangle_1066" data-name="Rectangle 1066" width="34.115" height="34.15" transform="translate(12591 13137)"/>
    </clipPath>
  </defs>
  <g id="footer-icon-1" transform="translate(-12591 -13137)" clip-path="url(#clip-path)">
    <g id="location" transform="translate(12591 13137)">
      <g id="Group_445" data-name="Group 445" transform="translate(0 0)">
        <g id="Group_444" data-name="Group 444" transform="translate(0 0)">
          <path id="Path_356" data-name="Path 356" d="M90.847,28.319c1.405,1.981,2.808,3.753,3.738,4.894.135.166.262.32.385.469H92.164a.569.569,0,1,0,0,1.137h9.1a.569.569,0,0,0,0-1.137H98.456l.386-.469c.929-1.137,2.332-2.913,3.737-4.894a49.965,49.965,0,0,0,3.757-6.055,13.3,13.3,0,0,0,1.75-5.627,11.366,11.366,0,0,0-3.331-8.053.569.569,0,1,0-.8.8,10.233,10.233,0,0,1,3,7.249,12.259,12.259,0,0,1-1.626,5.111,48.835,48.835,0,0,1-3.671,5.914c-1.386,1.956-2.772,3.708-3.691,4.834-.305.374-.58.705-.814.985a.576.576,0,0,1-.867,0c-.234-.28-.509-.611-.814-.985-.918-1.125-2.3-2.877-3.691-4.834A48.835,48.835,0,0,1,88.1,21.748a12.242,12.242,0,0,1-1.626-5.111A10.239,10.239,0,0,1,100.7,7.191a.569.569,0,1,0,.444-1.047,11.378,11.378,0,0,0-15.8,10.494,13.32,13.32,0,0,0,1.75,5.63A49.929,49.929,0,0,0,90.847,28.319Z" transform="translate(-79.653 -5.246)"/>
          <path id="Path_357" data-name="Path 357" d="M176.347,83.222a.569.569,0,0,0,0-1.137,5.687,5.687,0,1,0,4.021,1.666.569.569,0,1,0-.8.8,4.549,4.549,0,1,1-3.217-1.332Z" transform="translate(-159.287 -76.964)"/>
          <path id="Path_358" data-name="Path 358" d="M33.906,370.832l-3.5-6.255a1.768,1.768,0,0,0-1.547-.893H24.809a.569.569,0,0,0,0,1.137h4.053a.631.631,0,0,1,.556.31l3.5,6.255a.512.512,0,0,1-.005.525.625.625,0,0,1-.55.3H1.763a.625.625,0,0,1-.55-.3.512.512,0,0,1-.005-.525l3.5-6.255a.63.63,0,0,1,.555-.31H9.312a.569.569,0,0,0,0-1.137H5.26a1.769,1.769,0,0,0-1.548.893l-3.5,6.255a1.649,1.649,0,0,0,.018,1.655,1.752,1.752,0,0,0,1.531.863H32.358a1.752,1.752,0,0,0,1.531-.863A1.649,1.649,0,0,0,33.906,370.832Z" transform="translate(0 -339.797)"/>
          <path id="Path_359" data-name="Path 359" d="M354.418,406.351h-2.275a.572.572,0,0,0-.316.1l-1.706,1.137a.569.569,0,1,0,.631.946l1.561-1.042h2.1a.569.569,0,1,0,0-1.137Z" transform="translate(-326.553 -379.621)"/>
          <path id="Path_360" data-name="Path 360" d="M366.937,458.12a.569.569,0,0,0,.569.569h4.549a.569.569,0,1,0,0-1.137h-4.549A.569.569,0,0,0,366.937,458.12Z" transform="translate(-342.484 -427.409)"/>
          <path id="Path_361" data-name="Path 361" d="M89.886,408.625a.569.569,0,0,0,.316-1.042L88.5,406.446a.572.572,0,0,0-.316-.1H85.906a.569.569,0,1,0,0,1.137h2.1l1.563,1.042A.567.567,0,0,0,89.886,408.625Z" transform="translate(-79.65 -379.62)"/>
          <path id="Path_362" data-name="Path 362" d="M60.306,457.551a.569.569,0,0,0,0,1.137h4.549a.569.569,0,0,0,0-1.137Z" transform="translate(-55.756 -427.409)"/>
        </g>
      </g>
    </g>
  </g>
</svg>
