<svg xmlns="http://www.w3.org/2000/svg" xmlns:xlink="http://www.w3.org/1999/xlink" width="30.754" height="25.247" viewBox="0 0 30.754 25.247">
  <defs>
    <clipPath id="clip-path">
      <rect id="Rectangle_1066" data-name="Rectangle 1066" width="30.754" height="25.247" transform="translate(12688 13443)"/>
    </clipPath>
  </defs>
  <g id="instagram-icon" transform="translate(-12688 -13443)" clip-path="url(#clip-path)">
    <g id="instagram" transform="translate(12691 13443)">
      <path id="Path_283" data-name="Path 283" d="M25.632,7.423a9.223,9.223,0,0,0-.587-3.063A6.468,6.468,0,0,0,21.35.666,9.253,9.253,0,0,0,18.286.079C16.935.015,16.506,0,13.077,0s-3.858.015-5.2.074A9.232,9.232,0,0,0,4.809.661a6.161,6.161,0,0,0-2.24,1.46A6.216,6.216,0,0,0,1.115,4.355,9.248,9.248,0,0,0,.528,7.418C.463,8.769.449,9.2.449,12.626s.015,3.857.074,5.2a9.223,9.223,0,0,0,.587,3.063A6.467,6.467,0,0,0,4.8,24.586a9.254,9.254,0,0,0,3.063.587c1.347.059,1.776.074,5.2.074s3.858-.015,5.2-.074a9.227,9.227,0,0,0,3.063-.587,6.458,6.458,0,0,0,3.695-3.694,9.254,9.254,0,0,0,.587-3.063c.059-1.346.074-1.776.074-5.2s-.005-3.857-.064-5.2ZM23.358,17.73a6.919,6.919,0,0,1-.434,2.343,4.188,4.188,0,0,1-2.4,2.4,6.947,6.947,0,0,1-2.343.434c-1.332.059-1.731.074-5.1.074s-3.774-.015-5.1-.074a6.919,6.919,0,0,1-2.343-.434,3.886,3.886,0,0,1-1.45-.942,3.925,3.925,0,0,1-.942-1.45,6.944,6.944,0,0,1-.434-2.343c-.059-1.332-.074-1.731-.074-5.1s.015-3.773.074-5.1a6.915,6.915,0,0,1,.434-2.343,3.837,3.837,0,0,1,.947-1.45A3.92,3.92,0,0,1,5.643,2.8a6.952,6.952,0,0,1,2.343-.434c1.332-.059,1.732-.074,5.1-.074s3.774.015,5.1.074a6.923,6.923,0,0,1,2.343.434,3.883,3.883,0,0,1,1.45.942,3.924,3.924,0,0,1,.942,1.45,6.947,6.947,0,0,1,.434,2.343c.059,1.332.074,1.731.074,5.1s-.015,3.763-.074,5.095Zm0,0" transform="translate(-0.449 0)"/>
      <path id="Path_284" data-name="Path 284" d="M130.191,124.5a5.241,5.241,0,1,0,5.242,5.241A5.243,5.243,0,0,0,130.191,124.5Zm0,8.641a3.4,3.4,0,1,1,3.4-3.4A3.4,3.4,0,0,1,130.191,133.141Zm0,0" transform="translate(-117.561 -117.115)"/>
      <path id="Path_285" data-name="Path 285" d="M366.093,90.423a1.822,1.822,0,1,1-1.822-1.822A1.822,1.822,0,0,1,366.093,90.423Zm0,0" transform="translate(-345.086 -84.353)"/>
    </g>
  </g>
</svg>
