<svg id="ruckruf-icon" xmlns="http://www.w3.org/2000/svg" width="104.287" height="106.546" viewBox="0 0 104.287 106.546">
  <path id="Path_14330" data-name="Path 14330" d="M76,71.306a7.769,7.769,0,0,0-10.631-2.774L55.015,74.6a4.159,4.159,0,0,1-5.7-1.495L31.4,43.049a4.159,4.159,0,0,1,1.485-5.691l10.355-6.07h0a7.769,7.769,0,0,0,2.774-10.631L36.164,3.843A7.769,7.769,0,0,0,25.533,1.069L18.449,5.221A26.591,26.591,0,0,0,5.767,23.23a1.558,1.558,0,1,0,3.062.579A23.479,23.479,0,0,1,19.3,8.349l14.553,24.83L31.313,34.67a7.275,7.275,0,0,0-2.592,9.964L46.636,74.691a7.283,7.283,0,0,0,9.955,2.6L59.135,75.8l14.553,24.83a23.5,23.5,0,0,1-31.385-8.8l-30.659-51.8a23.273,23.273,0,0,1-3.108-9.505,1.558,1.558,0,1,0-3.1.312A26.377,26.377,0,0,0,8.959,41.607l30.659,51.8A26.6,26.6,0,0,0,76,102.9l7.084-4.152A7.769,7.769,0,0,0,85.857,88.12ZM26.808,14.989,21.985,6.76l5.124-3a4.653,4.653,0,0,1,6.367,1.661L43.33,22.233A4.653,4.653,0,0,1,41.669,28.6l-5.123,3ZM83.656,93.223a4.622,4.622,0,0,1-2.149,2.839l-5.124,3L61.823,74.223l5.123-3a4.653,4.653,0,0,1,6.367,1.662L83.168,89.7a4.621,4.621,0,0,1,.488,3.528Z" transform="translate(-5.427 0)"/>
  <path id="Path_14331" data-name="Path 14331" d="M297.5,35.623a26.26,26.26,0,0,0-18.624-7.673h-.207a26.445,26.445,0,0,0-12.489,49.642v5.669a2.521,2.521,0,0,0,1.477,2.311,2.559,2.559,0,0,0,1.075.239,2.527,2.527,0,0,0,1.642-.61l5.355-4.552a26.623,26.623,0,0,0,15.41-2.825,1.558,1.558,0,1,0-1.447-2.759,23.382,23.382,0,0,1-10.819,2.655,23.629,23.629,0,0,1-2.991-.191,2.559,2.559,0,0,0-1.98.584L269.3,82.029V77.252a2.537,2.537,0,0,0-1.348-2.246,23.329,23.329,0,0,1,10.745-43.94h.183A23.327,23.327,0,0,1,295.2,71.058a1.558,1.558,0,1,0,2.18,2.226,26.443,26.443,0,0,0,.124-37.661Z" transform="translate(-201.032 -22.134)"/>
  <path id="Path_14332" data-name="Path 14332" d="M340.349,104.125H316.662a1.558,1.558,0,1,0,0,3.116h23.687a1.558,1.558,0,0,0,0-3.116Z" transform="translate(-250.661 -82.457)"/>
  <path id="Path_14333" data-name="Path 14333" d="M381.61,147.47H368.765a1.558,1.558,0,0,0,0,3.116H381.61a1.558,1.558,0,0,0,0-3.116Z" transform="translate(-291.921 -116.782)"/>
  <path id="Path_14334" data-name="Path 14334" d="M316.662,150.587h3.589a1.558,1.558,0,1,0,0-3.116h-3.589a1.558,1.558,0,1,0,0,3.116Z" transform="translate(-250.661 -116.783)"/>
  <path id="Path_14335" data-name="Path 14335" d="M316.662,193.932h23.687a1.558,1.558,0,0,0,0-3.116H316.662a1.558,1.558,0,1,0,0,3.116Z" transform="translate(-250.661 -151.108)"/>
</svg>
