<svg xmlns="http://www.w3.org/2000/svg" xmlns:xlink="http://www.w3.org/1999/xlink" width="30.754" height="25.247" viewBox="0 0 30.754 25.247">
  <defs>
    <clipPath id="clip-path">
      <path id="twitter" d="M.576,24.709a18.034,18.034,0,0,0,9.683,2.79,17.708,17.708,0,0,0,17.965-18,7.354,7.354,0,0,0,2.654-4.979.972.972,0,0,0-1.463-.838,4.016,4.016,0,0,1-3.266.548A6.935,6.935,0,0,0,17.934,3.12a6.673,6.673,0,0,0-3.623,6.254,16.091,16.091,0,0,1-10.438-5.7A.972.972,0,0,0,2.286,3.8a6.768,6.768,0,0,0-.151,6.684,1.011,1.011,0,0,0-.844,1.006,6.849,6.849,0,0,0,2.386,5.173.97.97,0,0,0-.249,1.006A6.971,6.971,0,0,0,7.374,21.9a11.307,11.307,0,0,1-6.158,1.028.971.971,0,0,0-.64,1.783Zm9.948-2.478a.972.972,0,0,0-.571-1.74,5.065,5.065,0,0,1-3.978-2.069A6.849,6.849,0,0,0,7.3,18.208a.972.972,0,0,0-.062-1.889,4.985,4.985,0,0,1-3.777-3.392,6.7,6.7,0,0,0,1.481.2A.972.972,0,0,0,5.5,11.342,4.825,4.825,0,0,1,3.43,6.074a18.054,18.054,0,0,0,11.96,5.339.969.969,0,0,0,.993-1.187,4.738,4.738,0,0,1,2.473-5.4,4.965,4.965,0,0,1,6.07.922c.579.61,2.531.633,3.525.4A6.259,6.259,0,0,1,26.68,8.237a.971.971,0,0,0-.413.843,15.79,15.79,0,0,1-4.348,11.6A15.9,15.9,0,0,1,10.26,25.555,16.308,16.308,0,0,1,5.027,24.7,13.114,13.114,0,0,0,10.524,22.23Z" transform="translate(12584.876 13335.748)"/>
    </clipPath>
  </defs>
  <g id="twitter-icon" transform="translate(-12585 -13338)" clip-path="url(#clip-path)">
    <rect id="Rectangle_1066" data-name="Rectangle 1066" width="30.754" height="25.247" transform="translate(12585 13338)"/>
  </g>
</svg>
