<svg xmlns="http://www.w3.org/2000/svg" xmlns:xlink="http://www.w3.org/1999/xlink" width="21.09" height="21.09" viewBox="0 0 21.09 21.09">
  <defs>
    <clipPath id="clip-path">
      <rect id="Rectangle_1069" data-name="Rectangle 1069" width="21.09" height="21.09" transform="translate(908.499 -14576)" fill="#444"/>
    </clipPath>
  </defs>
  <g id="clock" transform="translate(-908.499 14576)" clip-path="url(#clip-path)">
    <g id="clock-2" data-name="clock" transform="translate(908.495 -14576)">
      <g id="Group_1007" data-name="Group 1007">
        <g id="Group_1006" data-name="Group 1006">
          <path id="Path_534" data-name="Path 534" d="M176.459,41.146a.46.46,0,0,0,.459-.459v-.229a.459.459,0,0,0-.917,0v.229A.46.46,0,0,0,176.459,41.146Z" transform="translate(-165.912 -37.707)" fill="#444"/>
          <path id="Path_535" data-name="Path 535" d="M176.459,308a.46.46,0,0,0-.459.459v.229a.459.459,0,0,0,.917,0v-.229A.46.46,0,0,0,176.459,308Z" transform="translate(-165.912 -290.345)" fill="#444"/>
          <path id="Path_536" data-name="Path 536" d="M40.688,176h-.229a.459.459,0,0,0,0,.917h.229a.459.459,0,0,0,0-.917Z" transform="translate(-37.707 -165.912)" fill="#444"/>
          <path id="Path_537" data-name="Path 537" d="M308.688,176h-.229a.459.459,0,0,0,0,.917h.229a.459.459,0,0,0,0-.917Z" transform="translate(-290.345 -165.912)" fill="#444"/>
          <path id="Path_538" data-name="Path 538" d="M80.78,80.138a.454.454,0,0,0-.642.642l.16.16a.443.443,0,0,0,.642,0,.443.443,0,0,0,0-.642Z" transform="translate(-75.414 -75.414)" fill="#444"/>
          <path id="Path_539" data-name="Path 539" d="M80.3,269.338l-.16.161a.443.443,0,0,0,0,.642.443.443,0,0,0,.642,0l.16-.16a.454.454,0,1,0-.642-.642Z" transform="translate(-75.414 -253.769)" fill="#444"/>
          <path id="Path_540" data-name="Path 540" d="M269.5,80.138l-.161.16a.443.443,0,0,0,0,.642.443.443,0,0,0,.642,0l.16-.16a.454.454,0,0,0-.642-.642Z" transform="translate(-253.769 -75.414)" fill="#444"/>
          <path id="Path_541" data-name="Path 541" d="M176.917,104.631v-4.173a.459.459,0,0,0-.917,0v4.356a.453.453,0,0,0,.138.321l5.021,5.021a.443.443,0,0,0,.642,0,.443.443,0,0,0,0-.642Z" transform="translate(-165.912 -94.268)" fill="#444"/>
          <path id="Path_542" data-name="Path 542" d="M10.547,0A10.547,10.547,0,1,0,21.094,10.547,10.548,10.548,0,0,0,10.547,0Zm0,20.177a9.63,9.63,0,1,1,9.63-9.63A9.629,9.629,0,0,1,10.547,20.177Z" fill="#444"/>
        </g>
      </g>
    </g>
  </g>
</svg>
