<svg xmlns="http://www.w3.org/2000/svg" xmlns:xlink="http://www.w3.org/1999/xlink" width="21.09" height="21.09" viewBox="0 0 21.09 21.09">
  <defs>
    <clipPath id="clip-path">
      <rect id="Rectangle_1068" data-name="Rectangle 1068" width="21.09" height="21.09" transform="translate(788 -14572)" fill="#444"/>
    </clipPath>
  </defs>
  <g id="phone" transform="translate(-788 14572)" clip-path="url(#clip-path)">
    <g id="Group_12827" data-name="Group 12827" transform="translate(790 -14570)">
      <path id="Path_16" data-name="Path 16" d="M11836.849,279.9a.347.347,0,1,0,.49,0A.348.348,0,0,0,11836.849,279.9Z" transform="translate(-11828.765 -266.325)" fill="#444"/>
      <path id="Path_17" data-name="Path 17" d="M11837.3,265.006l-2.642-2.245a.194.194,0,0,0-.038-.028,1.725,1.725,0,0,0-2.161.237l-1.44,1.439a.347.347,0,0,1-.379.076,9.438,9.438,0,0,1-3.968-3.008,6.955,6.955,0,0,1-1.082-1.924.378.378,0,0,0-.021-.072.345.345,0,0,1,.076-.379l1.438-1.44a1.728,1.728,0,0,0,.238-2.162l-.012-.016-1.906-2.649a1.739,1.739,0,0,0-2.691-.287l-.288.288h0l-1.029,1.029c-1.227,1.227-1.428,3.071-.581,5.333a19.764,19.764,0,0,0,10.224,10.138c1.977.722,4.078.811,5.566-.677l.971-.971A1.739,1.739,0,0,0,11837.3,265.006Zm-3.071-1.7,2.639,2.243a.274.274,0,0,0,.038.028,1.044,1.044,0,0,1,.177,1.618l-.071.072-4.5-3.368.438-.439A1.036,1.036,0,0,1,11834.229,263.308Zm-9.406-10.091.011.016,1.906,2.649a1.036,1.036,0,0,1-.148,1.289l-.425.426-3.043-4.476.081-.082A1.043,1.043,0,0,1,11824.822,253.217Zm6.454,15.466a19.071,19.071,0,0,1-9.811-9.729c-.52-1.386-.868-3.309.422-4.6l.735-.736,3.042,4.476-.514.513a1.038,1.038,0,0,0-.237,1.107,7.742,7.742,0,0,0,1.125,2.074,10.2,10.2,0,0,0,4.335,3.336,1.039,1.039,0,0,0,1.136-.226l.5-.5,4.5,3.368-.4.4C11834.73,269.549,11832.719,269.21,11831.276,268.683Z" transform="translate(-11820.299 -252.038)" fill="#444"/>
      <path id="Path_18" data-name="Path 18" d="M11831.2,274.08c-.367-.322-1-.876-1.336-1.22a22.671,22.671,0,0,1-2.193-2.6.348.348,0,0,0-.572.4,23.659,23.659,0,0,0,2.266,2.692c.354.363.994.923,1.377,1.258a.348.348,0,1,0,.459-.523Z" transform="translate(-11823.765 -261.338)" fill="#444"/>
    </g>
  </g>
</svg>
